# AST/ASF file generated using VICON BodyLanguage
# -----------------------------------------------
:version 1.10
:name VICON
:units
  mass 1.0
  length 0.45
  angle deg
:documentation
   .ast/.asf automatically generated from VICON data using
   VICON BodyBuilder and BodyLanguage model FoxedUp or BRILLIANT.MOD
:root
   order TX TY TZ RX RY RZ
   axis XYZ
   position 0 0 0  
   orientation 0 0 0 
:bonedata
  begin
     id 1 
     name lhipjoint
     direction 0.522423 -0.726805 0.445902 
     length 2.25074 
     axis 0 0 0  XYZ
  end
  begin
     id 2 
     name lfemur
     direction 0.34202 -0.939693 0  
     length 6.54609  
     axis 0 0 20  XYZ
    dof rx ry rz
    limits (-160.0 20.0)
           (-70.0 70.0)
           (-60.0 70.0)
  end
  begin
     id 3 
     name ltibia
     direction 0.34202 -0.939693 0   
     length 7.7528   
     axis 0 0 20   XYZ
    dof rx
    limits (-10.0 170.0)
  end
  begin
     id 4 
     name lfoot
     direction 0.143696 -0.394801 0.90746   
     length 1.73269   
     axis -90 7.62852e-016 20   XYZ
    dof rx rz
    limits (-45.0 90.0)
           (-70.0 20.0)
  end
  begin
     id 5 
     name ltoes
     direction 1.53633e-011 -4.21912e-011 1   
     length 0.858383   
     axis -90 7.62852e-016 20   XYZ
    dof rx
    limits (-90.0 20.0)
  end
  begin
     id 6 
     name rhipjoint
     direction -0.515943 -0.73016 0.447961   
     length 2.2404  
     axis 0 0 0  XYZ 
  end
  begin
     id 7 
     name rfemur
     direction -0.34202 -0.939693 0   
     length 6.84377   
     axis 0 0 -20   XYZ
    dof rx ry rz
    limits (-160.0 20.0)
           (-70.0 70.0)
           (-70.0 60.0)
  end
  begin
     id 8 
     name rtibia
     direction -0.34202 -0.939693 0   
     length 7.57596   
     axis 0 0 -20   XYZ
    dof rx
    limits (-10.0 170.0)
 end
 begin
     id 9 
     name rfoot
     direction -0.0999372 -0.274575 0.956358   
     length 1.78783  
     axis -90 -7.62852e-016 -20   XYZ
    dof rx rz
    limits (-45.0 90.0)
           (-20.0 70.0)
  end
  begin
     id 10 
     name rtoes
     direction -1.53535e-011 -4.21895e-011 1   
     length 0.898614   
     axis -90 -7.62852e-016 -20   XYZ
    dof rx
    limits (-90.0 20.0)
  end
  begin
     id 11 
     name lowerback
     direction -0.011775 0.996164 -0.0867116   
     length 1.91499   
     axis 0 0 0   XYZ
    dof rx ry rz
    limits (-20.0 45.0)
           (-30.0 30.0)
           (-30.0 30.0)
  end
  begin
     id 12 
     name upperback
     direction -0.00189771 0.999673 -0.0254833   
     length 1.92213   
     axis 0 0 0   XYZ
    dof rx ry rz
    limits (-20.0 45.0)
           (-30.0 30.0)
           (-30.0 30.0)
  end
  begin
     id 13 
     name thorax
     direction 0.00335995 0.999878 0.0152401   
     length 1.93138   
     axis 0 0 0   XYZ
    dof rx ry rz
    limits (-20.0 45.0)
           (-30.0 30.0)
           (-30.0 30.0)
  end
  begin
     id 14 
     name lowerneck
     direction 0.00233191 0.998509 0.0545404   
     length 1.59408   
     axis 0 0 0   XYZ
    dof rx ry rz
    limits (-20.0 45.0)
           (-30.0 30.0)
           (-30.0 30.0)
  end
  begin
     id 15 
     name upperneck
     direction 0.07881 0.9956 -0.0506934   
     length 1.59344   
     axis 0 0 0   XYZ
    dof rx ry rz
    limits (-20.0 45.0)
           (-30.0 30.0)
           (-30.0 30.0)
  end
  begin
     id 16
     name head
     direction 0.0261681 0.999378 -0.0236299  
     length 1.60935  
     axis 0 0 0   XYZ
    dof rx ry rz
    limits (-20.0 45.0)
           (-30.0 30.0)
           (-30.0 30.0)
  end
  begin
     id 17 
     name lclavicle
     direction 0.96643 0.252035 0.0499195  
     length 3.82153  
     axis 0 0 0   XYZ
    dof ry rz
    limits (-20.0 10.0)
           (0.0 20.0)
  end
  begin
     id 18 
     name lhumerus
     direction 1 -4.48967e-011 -2.01614e-018   
     length 4.87796   
     axis 180 -30 -90   XYZ
    dof rx ry rz
    limits (-60.0 90.0)
           (-90.0 90.0)
           (-90.0 90.0)
  end
  begin
     id 19
     name lradius
     direction 1 -4.48958e-011 3.1409e-027   
     length 3.23169   
     axis 180 -30 -90   XYZ
    dof rx
    limits (-10.0 170.0)
  end
  begin
     id 20
     name lwrist
     direction 1 -4.48924e-011 1.0365e-027   
     length 1.61584   
     axis -2.56395e-016 90 90   XYZ
    dof ry
    limits (-180.0 0.0)
 end
  begin
     id 21 
     name lhand
     direction 1 -4.49055e-011 2.09488e-027   
     length 0.731324   
     axis -1.32723e-015 90 90   XYZ
    dof rx rz
    limits (-90.0 90.0)
           (-45.0 45.0)
  end
  begin
     id 22 
     name lfingers
     direction 1 -4.48935e-011 4.14981e-027   
     length 0.589612   
     axis -2.6545e-015 90 90   XYZ
    dof rx
    limits (0.0 90.0)
  end
  begin
     id 23
     name lthumb
     direction 0.707107 -6.35097e-011 0.707107   
     length 0.846569   
     axis -90 45 5.05613e-014   XYZ
    dof rx rz
    limits (-45.0 45.0)
           (-45.0 45.0)
  end
  begin
     id 24 
     name rclavicle
     direction -0.979337 0.201016 0.0221522   
     length 3.73827  
     axis 0 0 0   XYZ 
    dof ry rz
    limits (-10.0 20.0)
           (-20.0 0.0)
  end
  begin
     id 25 
     name rhumerus
     direction -1 -4.48971e-011 1.65907e-027  
     length 4.9143   
     axis 180 30 90   XYZ
    dof rx ry rz
    limits (-90.0 60.0)
           (-90.0 90.0)
           (-90.0 90.0)
  end
  begin
     id 26 
     name rradius
     direction -1 -4.4894e-011 2.17871e-028   
     length 3.29093   
     axis 180 30 90   XYZ
    dof rx
    limits (-10.0 170.0)
  end
  begin
     id 27 
     name rwrist
     direction -1 -4.48971e-011 1.04038e-027   
     length 1.64546   
     axis -2.56395e-016 -90 -90   XYZ
    dof ry
    limits (-180.0 0.0)
  end
  begin
     id 28
     name rhand
     direction -1 -4.49017e-011 2.08843e-027   
     length 0.54512   
     axis -1.32723e-015 -90 -90   XYZ
    dof rx rz
    limits (-90.0 90.0)
           (-45.0 45.0)
  end
  begin
     id 29
     name rfingers
     direction -1 -4.48918e-011 4.1439e-027   
     length 0.43949   
     axis -2.6545e-015 -90 -90   XYZ
    dof rx
    limits (0.0 90.0)
  end
  begin
     id 30
     name rthumb
     direction -0.707107 -6.35065e-011 0.707107   
     length 0.631022   
     axis -90 -45 -5.05613e-014   XYZ
    dof rx rz
    limits (-45.0 45.0)
           (-45.0 45.0)
  end
:hierarchy
  begin
    root lhipjoint rhipjoint lowerback
    lhipjoint lfemur
    lfemur ltibia
    ltibia lfoot
    lfoot ltoes
    rhipjoint rfemur
    rfemur rtibia
    rtibia rfoot
    rfoot rtoes
    lowerback upperback
    upperback thorax
    thorax lowerneck lclavicle rclavicle
    lowerneck upperneck
    upperneck head
    lclavicle lhumerus
    lhumerus lradius
    lradius lwrist
    lwrist lhand lthumb
    lhand lfingers
    rclavicle rhumerus
    rhumerus rradius
    rradius rwrist
    rwrist rhand rthumb
    rhand rfingers
  end

#!OML:ASF H:\BreakDance\Project 1\Capture day 1\Session 1\Male.ASF
:FULLY-SPECIFIED
:DEGREES
451
root 21.4942 15.6074 5.13216 -374.853 -78.8379 378.169
lowerback 10.7224 1.96701 -3.41052
upperback 6.4878 2.00717 -3.02783
thorax 0.746027 0.845866 -1.42308
lowerneck -0.546204 -0.981406 -2.10523
upperneck -13.6311 -1.77087 -0.927575
head -4.3739 -0.837275 0.130145
rclavicle 1.72943e-014 1.19271e-015
rhumerus -38.2075 8.51143 -79.6644
rradius 110.552
rwrist -6.20882
rhand -35.4132 -0.432807
rfingers 7.12502
rthumb -8.54358 -30.24
lclavicle 1.72943e-014 1.19271e-015
lhumerus -48.2807 -28.1861 70.3623
lradius 102.553
lwrist 12.0185
lhand -29.9299 -42.5328
lfingers 7.12502
lthumb -3.24974 -12.5778
rfemur -52.2022 -12.4052 25.9171
rtibia 48.4652
rfoot 6.98207 -8.48211
rtoes 35.9318
lfemur -39.3321 3.70726 -27.3242
ltibia 64.5343
lfoot -15.0527 -8.81021
ltoes -22.8735
452
root 21.5371 15.6351 5.12464 -373.252 -78.0473 377.021
lowerback 10.8558 1.56677 -3.5355
upperback 6.54765 1.46969 -2.67922
thorax 0.723193 0.569447 -0.939863
lowerneck -0.63094 -0.957247 -2.39754
upperneck -14.2349 -1.7823 -0.910191
head -4.57765 -0.832782 0.190591
rclavicle -3.97569e-016 1.35174e-014
rhumerus -40.8656 6.69069 -81.9304
rradius 111.043
rwrist -6.05508
rhand -36.1837 -0.653069
rfingers 7.12502
rthumb -9.28711 -30.4285
lclavicle -3.97569e-016 1.35174e-014
lhumerus -50.386 -27.5971 75.2885
lradius 103.211
lwrist 11.1298
lhand -29.4931 -43.5276
lfingers 7.12502
lthumb -2.82789 -13.5666
rfemur -53.6389 -11.2172 24.0978
rtibia 50.3479
rfoot 9.19534 -7.00574
rtoes 33.5124
lfemur -39.5793 3.24611 -27.6597
ltibia 63.8678
lfoot -15.066 -8.43207
ltoes -21.5359
453
root 21.5809 15.6621 5.11642 -371.875 -77.4532 376.178
lowerback 10.9259 1.26666 -3.53994
upperback 6.56034 1.07707 -2.42119
thorax 0.696363 0.37117 -0.63083
lowerneck -0.807944 -0.964388 -2.56495
upperneck -14.8792 -1.82701 -0.841103
head -4.78052 -0.854282 0.247787
rclavicle -1.98785e-015 3.10104e-014
rhumerus -43.4685 4.57117 -84.1894
rradius 111.496
rwrist -5.67076
rhand -37.0171 -0.707717
rfingers 7.12502
rthumb -10.0911 -30.4458
lclavicle -1.98785e-015 3.10104e-014
lhumerus -51.9504 -27.2775 79.8908
lradius 103.715
lwrist 9.9778
lhand -29.2304 -44.4615
lfingers 7.12502
lthumb -2.57426 -14.4973
rfemur -55.2559 -9.87372 22.2281
rtibia 52.5059
rfoot 11.1844 -4.84497
rtoes 30.544
lfemur -39.8697 3.04669 -27.9682
ltibia 63.1515
lfoot -15.1964 -8.18542
ltoes -19.7967
454
root 21.6252 15.686 5.1068 -370.656 -77.064 375.511
lowerback 10.9623 1.05257 -3.45496
upperback 6.5369 0.806148 -2.24709
thorax 0.653988 0.2382 -0.470618
lowerneck -0.984676 -0.971765 -2.5849
upperneck -15.627 -1.8691 -0.742865
head -5.0257 -0.884338 0.290233
rclavicle 3.20043e-014 -7.95139e-016
rhumerus -45.9429 2.30451 -86.4209
rradius 111.898
rwrist -5.14735
rhand -37.9489 -0.685013
rfingers 7.12502
rthumb -10.9899 -30.3773
lclavicle 3.20043e-014 -7.95139e-016
lhumerus -53.1006 -27.1712 84.1591
lradius 104.115
lwrist 8.63084
lhand -29.0262 -45.3469
lfingers 7.12502
lthumb -2.377 -15.3804
rfemur -56.9983 -8.38681 20.3433
rtibia 55.0004
rfoot 12.6045 -2.15185
rtoes 26.7971
lfemur -40.136 3.074 -28.208
ltibia 62.3792
lfoot -15.4591 -8.10056
ltoes -17.6673
455
root 21.6711 15.7031 5.09434 -369.466 -76.841 374.848
lowerback 11.0014 0.891446 -3.3146
upperback 6.47639 0.608597 -2.1378
thorax 0.572268 0.145325 -0.416003
lowerneck -0.969838 -0.951339 -2.42029
upperneck -17.0151 -1.88427 -0.650929
head -4.93778 -0.907757 0.289677
rclavicle 2.72335e-014 -1.47101e-014
rhumerus -48.238 0.0747013 -88.6004
rradius 112.232
rwrist -4.63363
rhand -39.0088 -0.603117
rfingers 7.12502
rthumb -12.0121 -30.2384
lclavicle 2.72335e-014 -1.47101e-014
lhumerus -53.9356 -27.2027 88.0915
lradius 104.446
lwrist 7.18725
lhand -28.8009 -46.1992
lfingers 7.12502
lthumb -2.15941 -16.2304
rfemur -58.8447 -6.81821 18.5006
rtibia 57.8974
rfoot 13.1956 0.909241
rtoes 21.2426
lfemur -40.3516 3.25411 -28.3443
ltibia 61.5687
lfoot -15.9065 -8.14851
ltoes -15.5287
456
root 21.7192 15.7108 5.07814 -368.176 -76.7389 374.025
lowerback 11.05 0.745949 -3.15365
upperback 6.41432 0.432104 -2.06099
thorax 0.483802 0.0636153 -0.40857
lowerneck -0.995138 -0.887197 -2.11584
upperneck -18.0881 -1.83788 -0.577327
head -5.26809 -0.915741 0.267924
rclavicle 2.93207e-014 2.06736e-014
rhumerus -50.1978 -1.86614 -90.6932
rradius 112.44
rwrist -4.30311
rhand -40.211 -0.418005
rfingers 7.12502
rthumb -13.1712 -29.982
lclavicle 2.93207e-014 2.06736e-014
lhumerus -54.4301 -27.2919 91.6527
lradius 104.728
lwrist 5.74003
lhand -28.5162 -47.0099
lfingers 7.12502
lthumb -1.88446 -17.0385
rfemur -60.7805 -5.25132 16.7689
rtibia 61.2394
rfoot 12.7657 4.05791
rtoes 12.9722
lfemur -40.515 3.51657 -28.355
ltibia 60.752
lfoot -16.5924 -8.26108
ltoes -13.9575
457
root 21.7707 15.708 5.05772 -366.726 -76.715 372.969
lowerback 11.1055 0.577634 -3.03122
upperback 6.37521 0.22151 -1.96504
thorax 0.4156 -0.037562 -0.355883
lowerneck -1.00243 -0.755211 -1.75863
upperneck -19.286 -1.70605 -0.516219
head -5.64425 -0.890174 0.230678
rclavicle -3.08116e-015 2.3059e-014
rhumerus -51.7283 -3.26756 -92.6483
rradius 112.52
rwrist -4.22645
rhand -41.4918 -0.160158
rfingers 7.12502
rthumb -14.4055 -29.6402
lclavicle -3.08116e-015 2.3059e-014
lhumerus -54.5469 -27.3465 94.8502
lradius 104.979
lwrist 4.3257
lhand -28.2236 -47.7726
lfingers 7.12502
lthumb -1.60188 -17.7989
rfemur -62.7869 -3.77433 15.2042
rtibia 65.0247
rfoot 11.3079 6.9305
rtoes 2.21965
lfemur -40.6417 3.81097 -28.2465
ltibia 59.9638
lfoot -17.5051 -8.35677
ltoes -13.2154
458
root 21.8264 15.6966 5.03337 -365.153 -76.7103 371.712
lowerback 11.1753 0.368962 -2.97066
upperback 6.3584 -0.048576 -1.83834
thorax 0.364189 -0.171412 -0.230063
lowerneck -0.982396 -0.565441 -1.40263
upperneck -20.5711 -1.49689 -0.436321
head -6.05652 -0.834842 0.196124
rclavicle 7.7526e-015 5.56597e-015
rhumerus -52.8243 -4.01315 -94.4505
rradius 112.527
rwrist -4.45321
rhand -42.7367 0.197021
rfingers 7.12502
rthumb -15.6047 -29.1935
lclavicle 7.7526e-015 5.56597e-015
lhumerus -54.268 -27.4115 97.6865
lradius 105.214
lwrist 2.96041
lhand -28.0068 -48.5208
lfingers 7.12502
lthumb -1.39247 -18.5456
rfemur -64.8223 -2.47541 13.8222
rtibia 69.2018
rfoot 9.17147 9.08963
rtoes -8.18943
lfemur -40.7412 4.08123 -28.0591
ltibia 59.2197
lfoot -18.5641 -8.36009
ltoes -13.1895
459
root 21.8867 15.682 5.00637 -363.527 -76.6738 370.338
lowerback 11.2643 0.112897 -2.95931
upperback 6.35368 -0.38643 -1.68975
thorax 0.317815 -0.341089 -0.0462135
lowerneck -0.95641 -0.347584 -1.08413
upperneck -21.8558 -1.24154 -0.308664
head -6.47393 -0.764787 0.179962
rclavicle 1.61016e-014 -2.82274e-014
rhumerus -53.5118 -4.09234 -96.0637
rradius 112.552
rwrist -4.86135
rhand -43.7035 0.747198
rfingers 7.12502
rthumb -16.5357 -28.5682
lclavicle 1.61016e-014 -2.82274e-014
lhumerus -53.6042 -27.5861 100.164
lradius 105.495
lwrist 1.69857
lhand -27.9192 -49.3017
lfingers 7.12502
lthumb -1.30788 -19.326
rfemur -66.8223 -1.41849 12.6223
rtibia 73.6738
rfoot 6.93777 10.3938
rtoes -15.9126
lfemur -40.8184 4.28722 -27.8397
ltibia 58.5144
lfoot -19.6565 -8.23248
ltoes -13.6139
460
root 21.9519 15.6717 4.97888 -361.92 -76.5365 368.939
lowerback 11.3768 -0.199312 -2.95234
upperback 6.34658 -0.799323 -1.53603
thorax 0.260198 -0.548132 0.154448
lowerneck -0.907549 -0.127747 -0.835848
upperneck -23.1127 -0.96819 -0.101589
head -6.89114 -0.693062 0.199653
rclavicle 9.34288e-015 1.23246e-014
rhumerus -53.8441 -3.55802 -97.4566
rradius 112.682
rwrist -5.30676
rhand -44.2264 1.60174
rfingers 7.12502
rthumb -17.0392 -27.671
lclavicle 9.34288e-015 1.23246e-014
lhumerus -52.5966 -27.9755 102.291
lradius 105.87
lwrist 0.55352
lhand -27.9705 -50.1185
lfingers 7.12502
lthumb -1.35739 -20.143
rfemur -68.7041 -0.665294 11.5921
rtibia 78.3192
rfoot 4.99645 11.0479
rtoes -20.5598
lfemur -40.8727 4.37275 -27.6306
ltibia 57.8161
lfoot -20.6599 -7.97947
ltoes -14.2409
